<svg width="30" height="30" viewBox="0 0 30 30" fill="none" xmlns="http://www.w3.org/2000/svg">
<path fill-rule="evenodd" clip-rule="evenodd" d="M16 8H18.0303V6H16V8ZM20 8H22.0303V6H20V8ZM8 24H10.0303V22H8V24ZM11 24H13.0303V22H11V24ZM23 19V21C24.0913 21 24.9765 21.872 24.9765 22.947H27.0068C27.0068 20.77 25.209 19 23 19ZM7.00785 5V3C4.79785 3 3 4.77 3 6.947H5.03032C5.03032 5.872 5.91554 5 7.00785 5ZM6.96819 2C9.70811 2 11.9374 4.195 11.9374 6.895C11.9374 9.594 9.70811 11.789 6.96819 11.789C4.22828 11.789 2 9.594 2 6.895C2 4.195 4.22828 2 6.96819 2ZM6.99852 13.789C10.8582 13.789 13.998 10.696 13.998 6.895C13.998 4.982 13.2022 3.25 11.922 2H22.6411C24.2471 2 25.7759 2.762 26.7312 4.036C27.7027 5.335 27.9687 7.004 27.4631 8.614C26.8368 10.607 24.8156 12 22.5477 12H14.2122V14H22.5477C25.6968 14 28.5159 12.028 29.4021 9.206C30.1015 6.981 29.7239 4.665 28.3646 2.85C27.0297 1.065 24.8897 0 22.6411 0H7.10612V0.006C7.06958 0.005 7.03405 0 6.99852 0C3.13888 0 1.60964e-08 3.093 1.60964e-08 6.895C1.60964e-08 10.696 3.13888 13.789 6.99852 13.789ZM22.9702 27.789C20.2303 27.789 18 25.594 18 22.894C18 20.195 20.2303 18 22.9702 18C25.7101 18 27.9384 20.195 27.9384 22.894C27.9384 25.594 25.7101 27.789 22.9702 27.789ZM22.7479 16.211C22.6931 16.211 22.6403 16.218 22.5875 16.219V16H7.10527C4.85669 16 2.71673 17.065 1.3818 18.85C0.0224977 20.665 -0.355142 22.981 0.343288 25.206C1.23054 28.028 4.04964 30 7.19867 30H15.4814V28H7.19867C4.9308 28 2.90961 26.607 2.28326 24.614C1.77771 23.004 2.04368 21.335 3.01519 20.036C3.97046 18.762 5.75409 18 7.36008 18H18.0609C16.6437 19.263 15.7473 21.08 15.7473 23.105C15.7473 26.907 18.8882 30 22.7479 30C26.6075 30 29.7464 26.907 29.7464 23.105C29.7464 19.304 26.6075 16.211 22.7479 16.211Z" fill="white"/>
</svg>
