<svg width="30" height="30" viewBox="0 0 30 30" fill="none" xmlns="http://www.w3.org/2000/svg">
<path fill-rule="evenodd" clip-rule="evenodd" d="M23 10V6H9V10H11V8H13V10H15V8H17V10H19V8H21V10H23ZM13 2H15V4H17V2H19V4H21V2H23V4H25V0H11V4H13V2ZM8 26H10V24H8V26ZM8 19H10V17H8V19ZM12 26H14V24H12V26ZM27 2V4H28V8H25V10H28V11H30V2H27ZM28 28H7C4.215 28 2 25.8168 2 23V13C3.271 14.2882 5.041 15.0878 7 15H28V28ZM2 8C2 5.239 4.239 3 7 3H9V1H7C3.135 1 0 4.135 0 8V23C0 26.91 3.113 30 7 30H30V13H7C4.239 13 2 10.761 2 8ZM12 19H14V17H12V19ZM20 19H22V17H20V19ZM16 26H18V24H16V26ZM16 19H18V17H16V19Z" fill="white"/>
</svg>
