<svg width="23" height="5" viewBox="0 0 23 5" fill="none" xmlns="http://www.w3.org/2000/svg">
<path fill-rule="evenodd" clip-rule="evenodd" d="M2.5 5C3.88086 5 5 3.88086 5 2.5C5 1.11914 3.88086 0 2.5 0C1.11914 0 0 1.11914 0 2.5C0 3.88086 1.11914 5 2.5 5ZM11.5 5C12.8809 5 14 3.88086 14 2.5C14 1.11914 12.8809 0 11.5 0C10.1191 0 9 1.11914 9 2.5C9 3.88086 10.1191 5 11.5 5ZM23 2.5C23 3.88086 21.8809 5 20.5 5C19.1191 5 18 3.88086 18 2.5C18 1.11914 19.1191 0 20.5 0C21.8809 0 23 1.11914 23 2.5Z" fill="white"/>
</svg>
