<svg width="27" height="26" viewBox="0 0 27 26" fill="none" xmlns="http://www.w3.org/2000/svg">
<path fill-rule="evenodd" clip-rule="evenodd" d="M4.4902 19.8351C3.8867 19.8503 3.27356 19.7664 2.73096 19.8821V23.6729H6.38918V19.8317C5.72586 19.8317 5.10762 19.8196 4.4902 19.8351ZM22.5797 6.17297C23.2274 6.16051 23.8825 6.23163 24.4739 6.13574V2.5918H20.5581V6.17576C21.2608 6.17576 21.9205 6.18563 22.5797 6.17297ZM4.48964 2.59985C3.88623 2.61515 3.2731 2.53082 2.73096 2.64695V6.17997H6.38918V2.59641C5.7255 2.59641 5.10721 2.58425 4.48964 2.59985ZM15.4926 24.7194H16.7969V23.6729H15.4331C15.4565 24.0857 15.4747 24.4053 15.4926 24.7194ZM15.5088 8.72152H16.7454V7.47559H15.5088V8.72152ZM20.5068 23.7225H21.8465V22.4268H20.5068V23.7225ZM11.6961 18.5894H10.4595V19.8666C10.9216 19.8455 11.3348 19.8267 11.6961 19.8101V18.5894ZM16.8486 25.9656H19.1672V24.7695H16.8486V25.9656ZM16.7969 23.7225H19.2185V22.4268H16.7969V23.7225ZM25.6074 21.0812H26.8955V18.5894H25.6074V21.0812ZM7.66217 10.077C7.23509 10.084 6.80831 10.1044 6.38916 10.1188V11.3631H9.06842V10.0753C8.53973 10.0753 8.1008 10.0697 7.66217 10.077ZM26.844 11.3128V10.0669H24.5254V12.3594H25.5214C25.5583 11.9949 25.5913 11.6707 25.6275 11.3128H26.844ZM5.29813 12.3596H4.01904V13.6736C4.89001 13.655 5.66962 13.6878 6.44068 13.6529V11.313L5.36578 11.2632C5.3191 11.6735 5.33384 12.0458 5.29813 12.3596ZM23.1796 21.1312C23.2166 21.6236 23.2472 22.0293 23.2771 22.427H24.4742V19.8853H21.8979V21.1312H23.1796ZM21.8462 17.5429V18.5396H25.5559V16.1973H24.5255V17.5429H21.8462ZM0.0512695 10.1172V11.301C0.953717 11.3866 1.82855 11.2581 2.67901 11.3823V12.3599H4.01864V10.1172H0.0512695ZM1.33938 12.4097V13.6556H0.0512695V16.1475H6.38876V14.918C5.73167 14.918 5.11374 14.9183 4.49586 14.9179C3.88828 14.9175 3.28071 14.9163 2.67901 14.9155V12.4097H1.33938ZM11.6854 22.4266H10.4595V25.9413C11.2657 25.9246 12.0223 25.9658 12.768 25.9135C12.768 25.4244 12.768 25.0487 12.7494 24.655C12.4367 24.637 12.1057 24.637 11.7476 24.637V23.7722H12.7472C12.7472 24.0988 12.7472 24.4254 12.7661 24.7339C13.2131 24.7523 13.641 24.7523 14.1177 24.7523V21.1309H11.7445C11.7233 21.5971 11.7051 21.9945 11.6854 22.4266ZM24.5342 23.7278C24.8532 23.7461 25.1909 23.7461 25.556 23.7461V24.6694H24.5511C24.5511 24.3426 24.5511 24.0155 24.5321 23.7066C23.6242 23.6882 22.7352 23.6882 21.8462 23.6882V24.6867C21.3416 24.7184 20.9235 24.7447 20.5581 24.7676V25.9652H26.8956V22.4268H24.5152C24.5152 22.8544 24.5152 23.282 24.5342 23.7278ZM1.39111 18.5894H7.65497C7.63848 18.5745 7.6763 18.5994 7.70052 18.6333C7.72309 18.6648 7.74385 18.706 7.7439 18.7429C7.74596 20.704 7.74571 22.6651 7.74571 24.6695H1.39111V18.5894ZM0.0271968 25.8116C0.0272484 25.8487 0.0482188 25.89 0.0708894 25.9216C0.0952604 25.9556 0.133182 25.9806 0.11654 25.9655H9.06842V17.543H0.0253935C0.0253935 20.3283 0.0252389 23.0699 0.0271968 25.8116ZM18.0848 12.3535C17.7122 12.3701 17.3015 12.3884 16.8482 12.4086V13.6553H15.5086V14.9511H16.7452V17.4928H15.4571V16.2967H14.1676C14.1351 15.8526 14.1056 15.4482 14.073 15.0009H12.8038C12.7675 15.3631 12.7675 15.7679 12.7675 16.197H11.7988V14.9511H12.754C12.7906 14.5344 12.7906 14.1549 12.7906 13.6886C13.1969 13.6632 13.6105 13.6373 14.0659 13.6087V12.4075C13.6962 12.3886 13.2814 12.3674 12.8293 12.3443V11.4126H18.0848V12.3535ZM18.0847 19.8355H15.5084V18.6548C15.4923 18.6712 15.5223 18.614 15.5526 18.6138C16.3812 18.6089 17.2097 18.6099 18.0847 18.6099V19.8355ZM19.2183 12.3595H20.4548V11.4126H19.2183V12.3595ZM21.8979 14.9012H23.1345V13.7051H21.8979V14.9012ZM19.1156 19.7941V17.5431C18.7787 17.5263 18.4905 17.5119 18.1881 17.4969V13.7053H19.2186V15.0011H20.4927C20.5763 15.8751 20.4495 16.7206 20.5721 17.5428H21.8464V16.2471H24.5256V12.3597H23.2715C23.2295 11.9691 23.1961 11.6577 23.1592 11.3131H21.9891C21.962 10.8679 21.9373 10.4633 21.9128 10.0628C19.768 10.0628 17.7127 10.0631 15.6574 10.0609C15.6195 10.0608 15.5771 10.0373 15.5449 10.0144C15.5107 9.99011 15.4862 9.95348 15.4574 9.92218V8.77144H14.0662V6.22973H12.7781V8.7216H11.7476V5.1333H10.408C10.408 7.27447 10.408 9.30769 10.4275 11.3587C10.8333 11.3766 11.6961 11.3766 11.6961 11.3766V12.3099H10.4469C10.4469 11.993 10.4469 11.6678 10.4275 11.3587C9.9642 11.3409 9.52047 11.3409 9.06835 11.3409V12.3597H7.78024V13.6555H9.01682V15.0011H7.7417C7.76344 15.4512 7.78276 15.8525 7.80425 16.2969H10.408V17.5428H12.8296V18.5194C13.2912 18.5451 13.7077 18.5682 14.1177 18.591V21.1311H19.1671V22.4269H20.5067V19.8938C19.9969 19.8573 19.5776 19.8272 19.1156 19.7941ZM12.8296 2.492H14.0662V1.2959H12.8296V2.492ZM12.8298 3.93716H14.1695V5.1831H15.44C15.461 5.55817 15.477 5.84429 15.4931 6.13001H16.7457V3.91299C16.2937 3.88981 15.8785 3.86848 15.5091 3.8495V2.61183C15.9697 2.58138 16.3873 2.55382 16.7972 2.52676V0H10.4082V2.53623C10.9156 2.56962 11.3355 2.59728 11.7478 2.62439V5.1831H12.8298V3.93716ZM25.5562 7.42588H19.2108C19.2028 5.44234 19.2097 3.4151 19.2065 1.3457H25.5562V7.42588ZM18.1367 0V8.75669C21.0648 8.75669 23.9042 8.75684 26.7435 8.7549C26.7819 8.7549 26.8246 8.73412 26.8573 8.71204C26.8922 8.68832 26.9177 8.65159 26.9474 8.62059V0H18.1367ZM1.39111 1.34559H7.66064C7.64379 1.32715 7.6779 1.35595 7.70042 1.39164C7.72128 1.42473 7.74189 1.4651 7.74189 1.50228C7.7439 3.46258 7.74364 5.42289 7.74364 7.42576H1.39111V1.34559ZM8.8646 8.7549C8.90288 8.7549 8.94559 8.73417 8.97821 8.71209C9.0132 8.68842 9.03865 8.65169 9.06827 8.62064V0H0V8.75669C3.01402 8.75669 5.93931 8.75684 8.8646 8.7549Z" fill="white"/>
</svg>
