<svg width="51" height="46" viewBox="0 0 51 46" fill="none" xmlns="http://www.w3.org/2000/svg">
<path d="M45.8387 26.2232V37.2232H4.74194C2.1236 37.2232 0 35.112 0 32.5089V0" transform="translate(1 7.77686)" stroke="white"/>
<path d="M10.2742 0H4.74194C2.1236 0 0 2.11121 0 4.71429C0 7.31736 2.1236 9.42857 4.74194 9.42857H45.8387V20.4286" transform="translate(1 2.57129)" stroke="white"/>
<path d="M3.95161 7.07143V0H0" transform="translate(42.8867 2.57129)" stroke="white"/>
<path d="M4.74194 2.35714C4.74194 3.65907 3.67974 4.71429 2.37097 4.71429C1.06219 4.71429 0 3.65907 0 2.35714C0 1.05521 1.06219 0 2.37097 0C3.67974 0 4.74194 1.05521 4.74194 2.35714Z" transform="translate(30.2422 26.1431)" stroke="white"/>
<path d="M1.58065 0H0" transform="translate(41.3062 15.1431)" stroke="white"/>
<path d="M1.58065 0H0" transform="translate(38.145 15.1431)" stroke="white"/>
<path d="M1.58065 0H0" transform="translate(34.9839 15.1431)" stroke="white"/>
<path d="M1.58065 0H0" transform="translate(31.8228 15.1431)" stroke="white"/>
<path d="M1.58065 0H0" transform="translate(28.6611 15.1431)" stroke="white"/>
<path d="M1.58065 0H0" transform="translate(25.5 15.1431)" stroke="white"/>
<path d="M1.58065 0H0" transform="translate(22.3389 15.1431)" stroke="white"/>
<path d="M1.58065 0H0" transform="translate(19.1772 15.1431)" stroke="white"/>
<path d="M1.58065 0H0" transform="translate(16.0161 15.1431)" stroke="white"/>
<path d="M1.58065 0H0" transform="translate(12.855 15.1431)" stroke="white"/>
<path d="M1.58065 0H0" transform="translate(9.69385 15.1431)" stroke="white"/>
<path d="M1.58065 0H0" transform="translate(6.53223 15.1431)" stroke="white"/>
<path d="M1.58065 0H0" transform="translate(41.3062 15.1431)" stroke="white"/>
<path d="M1.58065 0H0" transform="translate(38.145 15.1431)" stroke="white"/>
<path d="M1.58065 0H0" transform="translate(34.9839 15.1431)" stroke="white"/>
<path d="M1.58065 0H0" transform="translate(31.8228 15.1431)" stroke="white"/>
<path d="M1.58065 0H0" transform="translate(28.6611 15.1431)" stroke="white"/>
<path d="M1.58065 0H0" transform="translate(25.5 15.1431)" stroke="white"/>
<path d="M1.58065 0H0" transform="translate(22.3389 15.1431)" stroke="white"/>
<path d="M1.58065 0H0" transform="translate(19.1772 15.1431)" stroke="white"/>
<path d="M1.58065 0H0" transform="translate(16.0161 15.1431)" stroke="white"/>
<path d="M1.58065 0H0" transform="translate(12.855 15.1431)" stroke="white"/>
<path d="M1.58065 0H0" transform="translate(9.69385 15.1431)" stroke="white"/>
<path d="M1.58065 0H0" transform="translate(6.53223 15.1431)" stroke="white"/>
<path d="M1.58065 0H0" transform="translate(41.3062 41.8569)" stroke="white"/>
<path d="M1.58065 0H0" transform="translate(38.145 41.8569)" stroke="white"/>
<path d="M1.58065 0H0" transform="translate(34.9839 41.8569)" stroke="white"/>
<path d="M1.58065 0H0" transform="translate(31.8228 41.8569)" stroke="white"/>
<path d="M1.58065 0H0" transform="translate(28.6611 41.8569)" stroke="white"/>
<path d="M1.58065 0H0" transform="translate(25.5 41.8569)" stroke="white"/>
<path d="M1.58065 0H0" transform="translate(22.3389 41.8569)" stroke="white"/>
<path d="M1.58065 0H0" transform="translate(19.1772 41.8569)" stroke="white"/>
<path d="M1.58065 0H0" transform="translate(16.0161 41.8569)" stroke="white"/>
<path d="M1.58065 0H0" transform="translate(12.855 41.8569)" stroke="white"/>
<path d="M1.58065 0H0" transform="translate(9.69385 41.8569)" stroke="white"/>
<path d="M1.58065 0H0" transform="translate(6.53223 41.8569)" stroke="white"/>
<path d="M1.58065 0H0" transform="translate(41.3062 41.8569)" stroke="white"/>
<path d="M1.58065 0H0" transform="translate(38.145 41.8569)" stroke="white"/>
<path d="M1.58065 0H0" transform="translate(34.9839 41.8569)" stroke="white"/>
<path d="M1.58065 0H0" transform="translate(31.8228 41.8569)" stroke="white"/>
<path d="M1.58065 0H0" transform="translate(28.6611 41.8569)" stroke="white"/>
<path d="M1.58065 0H0" transform="translate(25.5 41.8569)" stroke="white"/>
<path d="M1.58065 0H0" transform="translate(22.3389 41.8569)" stroke="white"/>
<path d="M1.58065 0H0" transform="translate(19.1772 41.8569)" stroke="white"/>
<path d="M1.58065 0H0" transform="translate(16.0161 41.8569)" stroke="white"/>
<path d="M1.58065 0H0" transform="translate(12.855 41.8569)" stroke="white"/>
<path d="M1.58065 0H0" transform="translate(9.69385 41.8569)" stroke="white"/>
<path d="M1.58065 0H0" transform="translate(6.53223 41.8569)" stroke="white"/>
<path d="M19.7581 0H20.5484C21.8572 0 22.9194 1.05521 22.9194 2.35714C22.9194 3.65907 21.8572 4.71429 20.5484 4.71429H5.53226C2.47687 4.71429 0 7.17671 0 10.2143C0 13.2519 2.47687 15.7143 5.53226 15.7143H20.5484C21.8572 15.7143 22.9194 14.6591 22.9194 13.3571V2.35714" transform="translate(27.0806 18.2856)" stroke="white"/>
<path d="M0 4.71429V0H26.871V3.92857" transform="translate(13.645 1)" stroke="white"/>
<path d="M26.871 2.35714V0H0V2.35714" transform="translate(8.90332 5.71436)" stroke="white"/>
<path d="M8.69355 0H0" transform="translate(38.145 7.28564)" stroke="white"/>
<path d="M0 0V2.35714" transform="translate(23.1289 1)" stroke="white"/>
<path d="M0 0V2.35714" transform="translate(26.2905 1)" stroke="white"/>
<path d="M0 0V2.35714" transform="translate(29.4517 1)" stroke="white"/>
<path d="M0 0V2.35714" transform="translate(32.6133 1)" stroke="white"/>
<path d="M0 0V2.35714" transform="translate(35.7744 1)" stroke="white"/>
<path d="M0 0V2.35714" transform="translate(16.8062 1)" stroke="white"/>
<path d="M0 0V2.35714" transform="translate(18.3867 5.71436)" stroke="white"/>
<path d="M0 0V2.35714" transform="translate(21.5483 5.71436)" stroke="white"/>
<path d="M0 0V2.35714" transform="translate(24.7095 5.71436)" stroke="white"/>
<path d="M0 0V2.35714" transform="translate(27.8711 5.71436)" stroke="white"/>
<path d="M0 0V2.35714" transform="translate(31.0322 5.71436)" stroke="white"/>
<path d="M0 0V2.35714" transform="translate(12.0645 5.71436)" stroke="white"/>
</svg>
