<svg width="24" height="24" viewBox="0 0 24 24" fill="none" xmlns="http://www.w3.org/2000/svg">
<path opacity="0.8" fill-rule="evenodd" clip-rule="evenodd" d="M12 15.9999H13.6V11.9999H17.6V10.3999H13.6V6.3999H12V10.3999H8V11.9999H12V15.9999ZM6.3999 20.8002H7.9999V19.2002H6.3999V20.8002ZM20 11.9998H22.4V22.3998H5.6C3.372 22.3998 1.6 20.6414 1.6 18.3998V10.3182C2.6168 11.3558 4.0328 11.9998 5.6 11.9998V10.3998C3.3912 10.3998 1.6 8.6086 1.6 6.39981C1.6 4.191 3.3912 2.3998 5.6 2.3998H7.2V0.799805H5.6C2.508 0.799805 0 3.3078 0 6.39981V18.3998C0 21.5278 2.4904 23.9998 5.6 23.9998H24V10.3998H20V11.9998ZM21.6 1.6001V3.2001H22.4V6.4001H20V8.0001H22.4V8.8001H24V1.6001H21.6ZM9.6001 20.8002H11.2001V19.2002H9.6001V20.8002ZM10.3998 1.6H11.9998V3.2H13.5998V1.6H15.1998V3.2H16.7998V1.6H18.3998V3.2H19.9998V0H8.7998V3.2H10.3998V1.6ZM12.7998 20.8002H14.3998V19.2002H12.7998V20.8002Z" fill="white"/>
</svg>
